<svg display="block" height="152.404757" width="400" xmlns="http://www.w3.org/2000/svg"><g fill-rule="evenodd"><path d="m244 56.596c-11.037 1.737-17.42 8.679-17.384 18.904.05 13.749 15.546 22.181 31.217 16.985 14.922-4.948 17.86-23.853 5.031-32.381-4.585-3.048-12.47-4.515-18.864-3.508m-201.542 7.612c3.933 4.057 11.104 11.463 15.936 16.459l8.786 9.083-15.09.043-15.09.042v1.749 1.749h20.951 20.952l-.743-.787c-.409-.432-2.131-2.213-3.827-3.957-8.182-8.415-11.274-11.592-18.005-18.506-1.695-1.741-4.469-4.575-6.164-6.296-1.694-1.721-3.106-3.203-3.136-3.292-.036-.104 5.044-.162 14.208-.162h14.264v-1.75-1.75h-20.096-20.096zm44.542 10.875v18.25h17.25 17.25v-2.166-2.167h-14.25-14.25v-6.167-6.166h9 9v-2.167-2.167h-9-9v-5.583-5.583h13.75 13.75v-2.167-2.167h-16.75-16.75zm42.833 0v18.25h14.417 14.417v-2.166-2.167h-11.417-11.417v-16.083-16.084h-3-3zm52 0v18.25h3.084 3.083v-8.583-8.583h12 12v8.583 8.583h3.083 3.084v-18.25-18.25h-3.084-3.083v7.5 7.5h-12-12v-7.5-7.5h-3.083-3.084zm96.834 0v18.25h2.915 2.916l.043-15.392.042-15.391 2.609 6.016c1.435 3.31 4.434 10.236 6.665 15.392l4.056 9.375h2.76 2.76l1.563-3.541c2.182-4.944 6.557-14.843 9.467-21.42l2.454-5.545.042 15.253.043 15.253h2.916 2.915v-18.25-18.25l-4.125.003-4.125.003-6.206 14.206c-3.413 7.813-6.446 14.786-6.74 15.497-.64 1.545-.658 1.55-1.123.337-.201-.525-3.146-7.5-6.546-15.5l-6.182-14.546h-4.559-4.56zm54.166 0v18.25h17.334 17.333v-2.166-2.167h-14.25-14.25v-6.167-6.166h8.25 8.25v-2.167-2.167h-8.25-8.25v-5.583-5.583h13.667 13.666v-2.167-2.167h-16.75-16.75zm-82.25-14.576c9.676.917 15.24 7.99 13.764 17.493-1.247 8.02-8.824 12.851-18.297 11.663-9.705-1.217-14.81-8.58-12.781-18.435 1.299-6.31 6.369-10.195 14.064-10.779.413-.032.9-.07 1.084-.086.183-.016 1.158.049 2.166.144" fill="#b28f79"/><path d="m278.58 75.083c0 10.084.02 14.184.045 9.113.024-5.072.024-13.322 0-18.334-.025-5.012-.045-.862-.045 9.221m-185.505-8.333c0 3.117.022 4.368.05 2.781.027-1.587.027-4.137 0-5.667-.028-1.529-.05-.231-.05 2.886m223.838 11.333c0 8.434.02 11.908.045 7.721s.025-11.087 0-15.333c-.024-4.247-.045-.821-.045 7.612m-223.837 4.75c0 3.438.022 4.844.049 3.125.027-1.718.027-4.531 0-6.25-.027-1.718-.049-.312-.049 3.125" fill="#d0baad"/><path d="m54.138 60.458c3.971.025 10.421.025 14.333 0s.662-.045-7.221-.045-11.084.02-7.112.045m301.427 14.042c0 1.237.027 1.744.059 1.125s.032-1.631 0-2.25-.059-.113-.059 1.125" fill="#decfc6"/><path d="m.001 76.167v76.166h199.999 199.999v-76.166-76.167h-199.999-199.999zm253.613-19.502c10.343 1.687 16.794 8.301 17.169 17.604.396 9.815-5.583 16.919-16.033 19.052-14.61 2.982-27.365-4.608-28.176-16.767-.897-13.452 11.338-22.451 27.04-19.889m-178.114 2.002v1.833h-14.176c-13.907 0-14.172.006-13.954.318.122.174 2.847 3.005 6.055 6.291s8.677 8.899 12.152 12.474c3.476 3.575 7.675 7.889 9.33 9.586s3.23 3.329 3.499 3.625l.49.539h-20.948-20.948v-1.75-1.75h15.112 15.112l-1.311-1.375c-.722-.756-2.367-2.462-3.657-3.791-1.29-1.33-3.542-3.655-5.005-5.167-1.463-1.513-3.787-3.914-5.164-5.338-5.038-5.206-7.706-7.965-9.991-10.329-1.284-1.329-3.349-3.448-4.588-4.708l-2.254-2.292h20.123 20.123zm45 .333v2.167h-13.667-13.666v5.583 5.583h8.916 8.917v2.167 2.167h-8.917-8.916v6.166 6.167h14.166 14.167v2.167 2.166h-17.25-17.25v-18.25-18.25h16.75 16.75zm15.333 13.917v16.083h11.417 11.417v2.167 2.166h-14.417-14.417v-18.25-18.25h3 3zm52.167-8.584v7.5h12 12v-7.5-7.5h3.083 3.084v18.25 18.25h-3.084-3.083v-8.583-8.583h-12-12v8.583 8.583h-3.083-3.084v-18.25-18.25h3.084 3.083zm100.123-6.708c.183.435 2.994 7.054 6.247 14.708s6.048 14.273 6.211 14.709c.164.435.352.791.419.791s.256-.356.421-.791c.165-.436 3.11-7.205 6.543-15.042 3.434-7.838 6.326-14.456 6.426-14.708l.183-.459h4.13 4.13v18.25 18.25h-2.999-2.999l-.042-15.073-.043-15.073-2.182 4.948c-1.201 2.722-4.194 9.505-6.653 15.073l-4.47 10.125h-2.771-2.772l-2.903-6.708c-1.597-3.69-4.611-10.646-6.698-15.458l-3.795-8.75-.003 15.458-.003 15.458h-3-3v-18.25-18.25h4.644 4.645zm78.21 1.375v2.167h-13.666-13.667v5.583 5.583h8.333 8.334v2.167 2.167h-8.334-8.333v6.166 6.167h14.25 14.25v2.167 2.166h-17.333-17.334v-18.25-18.25h16.75 16.75zm-119.444 1.522c-6.872.483-12.075 4.343-13.45 9.978-2.601 10.66 3.249 18.678 14.061 19.274 8.874.488 15.468-4.024 16.767-11.473 1.909-10.949-5.577-18.608-17.378-17.779" fill="#fefefd"/></g></svg>